<svg width="24" height="25" viewBox="0 0 24 25" fill="none" xmlns="http://www.w3.org/2000/svg">
<path d="M22 5.03152V17.2784C22 18.2525 21.22 19.1657 20.26 19.2874L19.93 19.3281C17.75 19.6223 14.39 20.7485 12.47 21.8241C12.21 21.9763 11.78 21.9763 11.51 21.8241L11.47 21.8038C9.54997 20.7384 6.20003 19.6223 4.03003 19.3281L3.73999 19.2874C2.77999 19.1657 2 18.2525 2 17.2784V5.02137C2 3.81392 2.96997 2.90074 4.15997 3.00221C6.25997 3.1747 9.43997 4.25026 11.22 5.37653L11.47 5.52869C11.76 5.71133 12.24 5.71133 12.53 5.52869L12.7 5.4171C13.33 5.02138 14.13 4.62566 15 4.27053V8.41034L17 7.06083L19 8.41034V3.11387C19.27 3.06314 19.53 3.03266 19.77 3.01237H19.83C21.02 2.9109 22 3.81393 22 5.03152Z" stroke="#3A3A3A" stroke-width="1.5" stroke-linecap="round" stroke-linejoin="round"/>
<path d="M12 5.86377V21.0836" stroke="#3A3A3A" stroke-width="1.5" stroke-linecap="round" stroke-linejoin="round"/>
<path d="M19 3.11414V8.41061L17 7.0611L15 8.41061V4.2708C16.31 3.74318 17.77 3.31707 19 3.11414Z" stroke="#3A3A3A" stroke-width="1.5" stroke-linecap="round" stroke-linejoin="round"/>
</svg>
