<?xml version="1.0" standalone="no"?>
<!DOCTYPE svg PUBLIC "-//W3C//DTD SVG 20010904//EN"
 "http://www.w3.org/TR/2001/REC-SVG-20010904/DTD/svg10.dtd">
<svg version="1.0" xmlns="http://www.w3.org/2000/svg"
 width="512.000000pt" height="512.000000pt" viewBox="0 0 512.000000 512.000000"
 preserveAspectRatio="xMidYMid meet">

<g transform="translate(0.000000,512.000000) scale(0.100000,-0.100000)"
fill="#000000" stroke="none">
<path d="M211 5014 c-58 -29 -105 -84 -122 -143 -7 -25 -9 -771 -7 -2332 l3
-2296 30 -49 c19 -30 49 -60 79 -79 l49 -30 1821 -3 c1363 -2 1832 0 1864 9
54 15 125 77 148 131 18 41 19 86 22 790 l3 746 425 479 c235 263 441 501 460
528 48 72 70 168 55 242 -15 76 -44 133 -97 193 -50 54 -141 104 -211 115 -59
9 -143 -11 -196 -46 -25 -16 -133 -128 -239 -248 l-193 -218 -5 1026 c-5 973
-6 1028 -24 1069 -23 52 -92 115 -144 130 -30 9 -492 12 -1854 12 l-1814 0
-53 -26z m3705 -157 l24 -28 0 -1108 0 -1108 -439 -493 -440 -494 -115 -305
c-173 -458 -163 -425 -149 -461 l11 -30 -1124 0 -1125 0 -24 -25 c-32 -31 -32
-66 -1 -102 l24 -28 1327 0 1327 0 24 28 c29 34 31 67 5 98 -18 23 -27 24
-168 29 l-148 5 312 157 311 157 189 212 188 212 5 -639 c5 -688 6 -674 -46
-694 -16 -6 -696 -10 -1800 -10 -1930 0 -1816 -3 -1842 55 -18 39 -17 4519 1
4555 7 13 24 30 37 37 20 10 392 12 1818 10 l1794 -2 24 -28z m852 -1716 c20
-10 47 -30 59 -43 30 -32 63 -107 63 -143 0 -39 -31 -104 -63 -134 -26 -24
-27 -24 -70 -7 -24 9 -59 28 -78 42 -42 30 -99 114 -118 172 -14 40 -13 43 10
68 59 65 128 80 197 45z m-226 -362 c27 -27 74 -62 104 -77 l54 -27 -591 -668
c-324 -367 -593 -667 -597 -667 -4 0 -65 58 -136 129 l-129 129 29 36 c16 19
283 320 594 670 l565 635 29 -55 c16 -30 51 -77 78 -105z m-1162 -1535 c0 -5
-362 -186 -365 -182 -1 2 32 89 74 194 l75 192 108 -100 c59 -56 108 -102 108
-104z"/>
<path d="M573 4443 c-29 -6 -63 -49 -63 -80 0 -13 11 -35 25 -48 l24 -25 461
0 461 0 24 25 c44 43 25 108 -34 125 -35 10 -850 12 -898 3z"/>
<path d="M541 3863 c-34 -29 -37 -74 -8 -109 l25 -29 647 0 647 0 19 24 c28
35 25 85 -7 110 -26 21 -34 21 -664 21 -593 0 -639 -1 -659 -17z"/>
<path d="M552 3250 c-22 -9 -42 -46 -42 -76 0 -9 13 -29 29 -45 l30 -29 1526
2 1527 3 19 24 c26 32 24 77 -6 106 l-24 25 -1518 -1 c-887 0 -1527 -4 -1541
-9z"/>
<path d="M530 2623 c-26 -33 -21 -79 11 -105 20 -17 109 -18 1548 -18 l1528 0
21 23 c28 30 29 80 2 107 -20 20 -33 20 -1554 20 l-1535 0 -21 -27z"/>
<path d="M552 2040 c-28 -12 -45 -54 -37 -92 14 -62 -61 -58 1346 -56 l1281 3
19 24 c26 32 24 77 -6 106 l-24 25 -1278 -1 c-743 0 -1287 -4 -1301 -9z"/>
<path d="M564 1429 c-42 -12 -62 -56 -44 -99 7 -17 21 -35 31 -40 24 -14 2204
-13 2229 0 24 13 41 65 31 93 -21 55 44 52 -1130 54 -633 1 -1099 -2 -1117 -8z"/>
</g>
</svg>
