<?xml version="1.0" standalone="no"?>
<!DOCTYPE svg PUBLIC "-//W3C//DTD SVG 20010904//EN"
 "http://www.w3.org/TR/2001/REC-SVG-20010904/DTD/svg10.dtd">
<svg version="1.0" xmlns="http://www.w3.org/2000/svg"
 width="512.000000pt" height="512.000000pt" viewBox="0 0 512.000000 512.000000"
 preserveAspectRatio="xMidYMid meet">

<g transform="translate(0.000000,512.000000) scale(0.100000,-0.100000)"
fill="#000000" stroke="none">
<path d="M3670 5109 c-28 -8 -421 -396 -1842 -1817 -1624 -1624 -1808 -1811
-1818 -1849 -7 -29 -10 -239 -8 -675 l3 -633 24 -38 c13 -21 42 -50 64 -65
l41 -27 633 -3 c438 -2 647 1 676 8 38 10 224 194 1835 1803 986 986 1802
1806 1812 1823 27 42 35 109 20 164 -11 41 -66 100 -623 658 -337 337 -627
622 -644 633 -38 24 -123 33 -173 18z m520 -924 l445 -445 -1670 -1670 -1670
-1670 -447 0 -448 0 0 447 0 448 1667 1667 c918 918 1670 1668 1673 1668 3 0
205 -200 450 -445z"/>
<path d="M4039 1947 c-119 -63 -140 -216 -44 -313 64 -64 83 -66 565 -62 454
3 442 2 502 65 94 99 68 251 -54 314 -35 18 -64 19 -481 19 l-444 0 -44 -23z"/>
<path d="M3286 1175 c-57 -20 -87 -45 -113 -95 -27 -50 -30 -123 -9 -173 17
-39 71 -92 109 -106 19 -8 299 -11 863 -11 801 0 836 1 872 19 122 63 148 215
54 314 -62 66 -4 62 -912 64 -691 2 -831 0 -864 -12z"/>
<path d="M2492 389 c-47 -14 -109 -79 -123 -131 -23 -89 12 -182 88 -229 l38
-24 1245 0 1245 0 38 24 c21 13 50 42 65 64 23 34 27 52 27 107 0 55 -4 73
-27 107 -15 22 -44 51 -65 64 l-38 24 -1230 2 c-758 1 -1243 -2 -1263 -8z"/>
</g>
</svg>
